<svg xmlns="http://www.w3.org/2000/svg" viewBox="0 0 650.63 650.63"><defs><style>.cls-1{fill:#f1f2f6;}.cls-2{fill:#8395a7;}.cls-3{fill:#ff9ff3;}.cls-4{fill:#fcfcd0;}</style></defs><title>Asset 22</title><g id="Layer_2" data-name="Layer 2"><g id="Layer_1-2" data-name="Layer 1"><circle class="cls-1" cx="325.32" cy="325.32" r="325.32"/><path d="M453.4,370h-16a166.1,166.1,0,0,0-40.68-109q-5.36-6.19-11.31-11.85a169.42,169.42,0,0,0-15.5-13q-6.42-4.77-13.29-8.93a165.75,165.75,0,0,0-86-23.93c-92,0-166.79,74.82-166.79,166.79s74.82,166.79,166.79,166.79v16c-100.79,0-182.79-82-182.79-182.79s82-182.79,182.79-182.79A182.87,182.87,0,0,1,453.4,370Z"/><path d="M533.47,161.38l-19.61-4.77a82.91,82.91,0,0,0-3.37-8.14L521,131.22a8,8,0,0,0-1.18-9.81l-21.27-21.27A8,8,0,0,0,488.72,99l-17.24,10.49a82.91,82.91,0,0,0-8.14-3.37l-4.77-19.62a8,8,0,0,0-7.78-6.11H420.72a8,8,0,0,0-7.78,6.11l-4.77,19.62a81.61,81.61,0,0,0-8.15,3.36L382.78,99a8,8,0,0,0-9.81,1.18L351.7,121.4a8,8,0,0,0-1.18,9.81L361,148.45a80.53,80.53,0,0,0-3.37,8.14L338,161.37a8,8,0,0,0-6.11,7.77v30.08A8,8,0,0,0,338,207l19.61,4.78a85,85,0,0,0,3.37,8.14l-4.38,7.2-6.11,10a8,8,0,0,0,1.17,9.81L373,268.24a8,8,0,0,0,9.82,1.18l14-8.49,3.29-2a80.47,80.47,0,0,0,8.14,3.36l4.77,19.62A8,8,0,0,0,420.7,288h30.08a8,8,0,0,0,7.77-6.11l4.77-19.61a81.67,81.67,0,0,0,8.15-3.37l17.24,10.5a8,8,0,0,0,9.82-1.18L519.8,247a8,8,0,0,0,1.17-9.81l-10.49-17.24a81.67,81.67,0,0,0,3.37-8.15L533.47,207a8,8,0,0,0,6.11-7.77V169.16A8,8,0,0,0,533.47,161.38ZM523.58,193l-16.85,4.1a8,8,0,0,0-6.79,5.73,66,66,0,0,1-5.64,13.64,8,8,0,0,0,.45,8.43L504,240.11l-12.38,12.38-15-9.11a8,8,0,0,0-8.71-.63,67.12,67.12,0,0,1-13.64,5.64,8,8,0,0,0-5.67,6.44L444.49,272H427l-4.09-16.84a8,8,0,0,0-5.74-6.79,66.8,66.8,0,0,1-13.63-5.64,8,8,0,0,0-8.43.44l-9.68,5.89-5.59,3.4L367.44,240.1l2.47-4.06,6.65-10.92a8,8,0,0,0,.63-8.7,66.56,66.56,0,0,1-5.64-13.64,8,8,0,0,0-6.45-5.66l-17.19-4.19v-17.5l16.85-4.1a8,8,0,0,0,6.79-5.73A66.1,66.1,0,0,1,377.19,152a8,8,0,0,0-.44-8.43l-9.3-15.27,12.38-12.38,15,9.12a8,8,0,0,0,8.69.63A67,67,0,0,1,417.16,120a8,8,0,0,0,5.65-6.43L427,96.35h17.51l4.1,16.85a8,8,0,0,0,5.72,6.79A67,67,0,0,1,468,125.63a8,8,0,0,0,8.43-.45l15.26-9.28,12.38,12.37-9.12,15a8,8,0,0,0-.63,8.7,66,66,0,0,1,5.64,13.64,8,8,0,0,0,6.45,5.66l17.19,4.18Z"/><path class="cls-2" d="M506.39,171.26a8,8,0,0,1-6.45-5.66A66,66,0,0,0,494.3,152a8,8,0,0,1,.63-8.7l9.12-15L491.67,115.9l-15.26,9.28a8,8,0,0,1-8.43.45A67,67,0,0,0,454.33,120a8,8,0,0,1-5.72-6.79l-4.1-16.85H427l-4.19,17.21a8,8,0,0,1-5.65,6.43,67,67,0,0,0-13.65,5.64,8,8,0,0,1-8.69-.63l-15-9.12-12.38,12.38,9.3,15.27a8,8,0,0,1,.44,8.43,66.1,66.1,0,0,0-5.64,13.64,8,8,0,0,1-6.79,5.73l-16.85,4.1v17.5l17.19,4.19a8,8,0,0,1,6.45,5.66,66.56,66.56,0,0,0,5.64,13.64,8,8,0,0,1-.63,8.7l-9.12,15,12.38,12.38,15.27-9.29a8,8,0,0,1,8.43-.44,66.8,66.8,0,0,0,13.63,5.64,8,8,0,0,1,5.74,6.79L427,272h17.51l4.18-17.19a8,8,0,0,1,5.67-6.44A67.12,67.12,0,0,0,468,242.75a8,8,0,0,1,8.71.63l15,9.11L504,240.11l-9.29-15.26a8,8,0,0,1-.45-8.43,66,66,0,0,0,5.64-13.64,8,8,0,0,1,6.79-5.73l16.85-4.1V175.44Zm-70.64,55.8a42.88,42.88,0,1,1,42.87-42.87A42.93,42.93,0,0,1,435.75,227.06Z"/><path class="cls-2" d="M435.75,141.31a42.88,42.88,0,1,0,42.87,42.88A42.93,42.93,0,0,0,435.75,141.31Zm0,69.75a26.88,26.88,0,1,1,26.87-26.87A26.9,26.9,0,0,1,435.75,211.06Z"/><path class="cls-3" d="M270.61,249.29a74.12,74.12,0,1,0,74.11,74.12A74.2,74.2,0,0,0,270.61,249.29Zm0,132.23a58.12,58.12,0,1,1,58.11-58.11A58.18,58.18,0,0,1,270.61,381.52Z"/><path class="cls-3" d="M324.26,411.89H217a46.46,46.46,0,0,0-46.4,46.41v24.35a8,8,0,0,0,8,8h184.1a8,8,0,0,0,8-8V458.3A46.45,46.45,0,0,0,324.26,411.89Zm30.4,62.76H186.56V458.3A30.45,30.45,0,0,1,217,427.89h107.3a30.45,30.45,0,0,1,30.4,30.41Z"/><path class="cls-4" d="M437.4,370a166.1,166.1,0,0,0-40.68-109l-14,8.49a8,8,0,0,1-9.82-1.18L351.68,247a8,8,0,0,1-1.17-9.81l6.11-10a165.75,165.75,0,0,0-86-23.93c-92,0-166.79,74.82-166.79,166.79s74.82,166.79,166.79,166.79S437.41,461.94,437.41,370ZM270.61,249.29a74.12,74.12,0,1,1-74.11,74.12A74.2,74.2,0,0,1,270.61,249.29ZM370.66,482.65a8,8,0,0,1-8,8H178.56a8,8,0,0,1-8-8V458.3A46.46,46.46,0,0,1,217,411.89h107.3a46.45,46.45,0,0,1,46.4,46.41Z"/><path class="cls-3" d="M354.66,458.3v16.35H186.56V458.3A30.45,30.45,0,0,1,217,427.89h107.3A30.45,30.45,0,0,1,354.66,458.3Z"/><path class="cls-3" d="M328.72,323.41a58.11,58.11,0,1,1-58.11-58.12A58.18,58.18,0,0,1,328.72,323.41Z"/><path d="M453.41,370c0,100.79-82,182.79-182.8,182.79S87.82,470.76,87.82,370s82-182.79,182.79-182.79v16c-92,0-166.79,74.82-166.79,166.79s74.82,166.79,166.79,166.79S437.41,461.94,437.41,370Z"/></g></g></svg>