<svg xmlns="http://www.w3.org/2000/svg" viewBox="0 0 650.63 650.63"><defs><style>.cls-1{fill:#f1f2f6;}.cls-2{fill:#8395a7;}.cls-3{fill:#ff1c00;}.cls-4{fill:#a4b0be;}.cls-5{fill:#fff;}.cls-6{fill:#f8c291;}</style></defs><title>Asset 24</title><g id="Layer_2" data-name="Layer 2"><g id="Layer_1-2" data-name="Layer 1"><circle class="cls-1" cx="325.32" cy="325.32" r="325.32"/><path d="M432.76,469.73v14.49c0,.53,0,1-.05,1.57a28.67,28.67,0,0,1-28.59,27.07H382.54v-16h21.58a12.67,12.67,0,0,0,12.64-12.64V469.73Z"/><rect x="176.02" y="152.8" width="46.71" height="15.95"/><rect x="349.18" y="152.8" width="46.71" height="15.95"/><rect x="416.81" y="290.79" width="15.95" height="46.71"/><path d="M561.56,386.22,542,381.45a84.12,84.12,0,0,0-3.37-8.15l10.5-17.24a8,8,0,0,0-1.18-9.82L526.63,325a8,8,0,0,0-9.82-1.18l-17.24,10.49a82.91,82.91,0,0,0-8.14-3.37l-4.77-19.61a8,8,0,0,0-7.78-6.11H448.8A8,8,0,0,0,441,311.3l-4.77,19.61c-1.18.42-2.34.86-3.5,1.33q-2.36.94-4.65,2l-11.3-6.88-5.94-3.62a8,8,0,0,0-9.82,1.18l-21.27,21.27a8,8,0,0,0-1.17,9.81l10.49,17.24a81.67,81.67,0,0,0-3.37,8.15l-19.62,4.77A8,8,0,0,0,360,394v30.08a8,8,0,0,0,6.11,7.78l19.61,4.77a82.91,82.91,0,0,0,3.37,8.14L378.6,462a8,8,0,0,0,1.17,9.81L401,493.07a8,8,0,0,0,9.82,1.18l2.7-1.64,14.54-8.85q2.26,1.08,4.61,2c1.16.47,2.34.92,3.53,1.34L441,506.75a8,8,0,0,0,7.78,6.11h30.08a8,8,0,0,0,7.77-6.11l4.77-19.62a84,84,0,0,0,8.15-3.36l17.24,10.49a8,8,0,0,0,9.82-1.18l21.27-21.27a8,8,0,0,0,1.17-9.81l-10.49-17.24a82.49,82.49,0,0,0,3.37-8.14l19.62-4.78a8,8,0,0,0,6.11-7.77V394A8,8,0,0,0,561.56,386.22Zm-9.89,31.56-16.85,4.1a8,8,0,0,0-6.79,5.73,66.31,66.31,0,0,1-5.64,13.65,8,8,0,0,0,.45,8.42L532.13,465l-12.38,12.38-15-9.12a8,8,0,0,0-8.7-.63,67.12,67.12,0,0,1-13.64,5.64,8,8,0,0,0-5.67,6.44l-4.18,17.2H455.07L451,480a8,8,0,0,0-5.73-6.79,67.12,67.12,0,0,1-13.64-5.64,8,8,0,0,0-8.42.44l-2.81,1.71-3.61,2.2-8.85,5.38-12.38-12.37,9.12-15a8,8,0,0,0,.63-8.69,66.41,66.41,0,0,1-5.64-13.65,8,8,0,0,0-6.45-5.66L376,417.77V400.26l16.85-4.1a8,8,0,0,0,6.79-5.73,66.1,66.1,0,0,1,5.64-13.64,8,8,0,0,0-.44-8.43l-9.3-15.26,12.38-12.38,15,9.12a8,8,0,0,0,8.69.62,67,67,0,0,1,13.65-5.64,8,8,0,0,0,5.65-6.43l4.19-17.2H472.6L476.69,338a8,8,0,0,0,5.73,6.79,67,67,0,0,1,13.65,5.64,8,8,0,0,0,8.43-.45l15.26-9.28,12.38,12.38-9.12,15a8,8,0,0,0-.63,8.7A66,66,0,0,1,528,390.43a8,8,0,0,0,6.45,5.66l17.19,4.19Z"/><path class="cls-2" d="M534.48,396.09a8,8,0,0,1-6.45-5.66,66,66,0,0,0-5.64-13.64,8,8,0,0,1,.63-8.7l9.12-15-12.38-12.38L504.5,350a8,8,0,0,1-8.43.45,67,67,0,0,0-13.65-5.64,8,8,0,0,1-5.73-6.79l-4.09-16.84H455.09l-4.19,17.2a8,8,0,0,1-5.65,6.43,67,67,0,0,0-13.65,5.64,8,8,0,0,1-8.69-.62l-15-9.12L395.54,353.1l9.3,15.26a8,8,0,0,1,.44,8.43,66.1,66.1,0,0,0-5.64,13.64,8,8,0,0,1-6.79,5.73L376,400.26v17.51L393.19,422a8,8,0,0,1,6.45,5.66,66.41,66.41,0,0,0,5.64,13.65,8,8,0,0,1-.63,8.69l-9.12,15,12.38,12.37,8.85-5.38v-2.2h3.61l2.81-1.71a8,8,0,0,1,8.42-.44,67.12,67.12,0,0,0,13.64,5.64A8,8,0,0,1,451,480l4.1,16.85h17.51l4.18-17.2a8,8,0,0,1,5.67-6.44,67.12,67.12,0,0,0,13.64-5.64,8,8,0,0,1,8.7.63l15,9.12L532.13,465l-9.29-15.27a8,8,0,0,1-.45-8.42A66.31,66.31,0,0,0,528,427.61a8,8,0,0,1,6.79-5.73l16.85-4.1v-17.5ZM463.84,451.9A42.88,42.88,0,1,1,506.71,409,42.93,42.93,0,0,1,463.84,451.9Z"/><path class="cls-2" d="M463.84,366.15A42.88,42.88,0,1,0,506.71,409,42.92,42.92,0,0,0,463.84,366.15Zm0,69.75A26.88,26.88,0,1,1,490.71,409,26.91,26.91,0,0,1,463.84,435.9Z"/><polygon class="cls-3" points="283.12 232.05 217.91 297.26 188.79 268.14 200.1 256.82 217.91 274.63 271.81 220.73 283.12 232.05"/><polygon class="cls-3" points="283.12 361.82 217.91 427.03 188.79 397.91 200.1 386.6 217.91 404.41 271.81 350.51 283.12 361.82"/><path d="M432.76,181.41V290.79h-16V181.41a12.65,12.65,0,0,0-12.64-12.64H367.58v-16h36.54A28.68,28.68,0,0,1,432.76,181.41Z"/><path d="M393.08,496.86v16H167.79a28.68,28.68,0,0,1-28.64-28.65V181.41a28.68,28.68,0,0,1,28.64-28.64h36.54v16H167.79a12.65,12.65,0,0,0-12.64,12.64v302.8a12.66,12.66,0,0,0,12.64,12.65Z"/><path d="M341.18,133.73H230.73a8,8,0,0,0-8,8v38.08a8,8,0,0,0,8,8H341.18a8,8,0,0,0,8-8V141.73A8,8,0,0,0,341.18,133.73Zm-8,38.08H238.73V149.73h94.45Z"/><rect class="cls-4" x="238.73" y="149.73" width="94.45" height="22.08"/><path d="M322.36,124.81h-16c0-3.71-8.13-9.33-20.4-9.33s-20.4,5.62-20.4,9.33h-16c0-14.2,16-25.33,36.4-25.33S322.36,110.61,322.36,124.81Z"/><rect x="249.56" y="124.81" width="16" height="16.92"/><rect x="306.36" y="124.81" width="16" height="16.92"/><rect class="cls-5" x="304.78" y="248.17" width="77" height="16"/><rect class="cls-5" x="304.78" y="277.95" width="38.5" height="16"/><rect class="cls-5" x="304.78" y="377.95" width="46.09" height="16"/><path class="cls-6" d="M416.76,290.79V181.41a12.65,12.65,0,0,0-12.64-12.64H367.58v0h-18.4v11.06a8,8,0,0,1-8,8H230.73a8,8,0,0,1-8-8V168.75h-18.4v0H167.79a12.65,12.65,0,0,0-12.64,12.64v302.8a12.66,12.66,0,0,0,12.64,12.65H404.12a12.59,12.59,0,0,0,9.44-4.25l-2.7,1.64a8,8,0,0,1-9.82-1.18L379.77,471.8A8,8,0,0,1,378.6,462l10.49-17.25a82.91,82.91,0,0,1-3.37-8.14l-19.61-4.77a8,8,0,0,1-6.11-7.78V394a8,8,0,0,1,6.11-7.77l19.62-4.77a81.67,81.67,0,0,1,3.37-8.15L378.61,356a8,8,0,0,1,1.17-9.81L401.05,325a8,8,0,0,1,9.82-1.18l5.94,3.62V290.79ZM304.78,278h38.5v16h-38.5ZM217.91,427l-29.12-29.12L200.1,386.6l17.81,17.81,53.9-53.9,11.31,11.31Zm0-129.77-29.12-29.12,11.31-11.32,17.81,17.81,53.9-53.9,11.31,11.32ZM343.28,423.72h-38.5v-16h38.5ZM350.87,394H304.78V378h46.09Zm30.91-129.78h-77v-16h77Z"/><rect class="cls-5" x="304.78" y="407.72" width="38.5" height="16"/></g></g></svg>