<svg xmlns="http://www.w3.org/2000/svg" viewBox="0 0 650.63 650.63"><defs><style>.cls-1{fill:#f1f2f6;}.cls-2{fill:#ffe569;}.cls-3{fill:#b5ebd2;}.cls-4{fill:#f9a971;}</style></defs><title>Asset 21</title><g id="Layer_2" data-name="Layer 2"><g id="Layer_1-2" data-name="Layer 1"><circle class="cls-1" cx="325.32" cy="325.32" r="325.32"/><polygon points="361.36 257.65 339.83 279.18 328.51 290.51 328.34 290.68 317.05 279.39 317.22 279.22 328.55 267.9 350.08 246.37 361.36 257.65"/><polygon points="288.3 330.71 279.1 339.91 255.27 363.74 243.99 352.46 267.82 328.63 276.97 319.48 277.02 319.43 288.3 330.71"/><polygon points="304.26 401.06 301.83 403.49 289.2 416.13 271.24 434.09 260.01 422.87 259.95 422.81 289.84 392.92 292.98 389.78 304.26 401.06"/><polygon points="433.81 271.52 410.23 295.1 401.24 304.08 400.78 304.54 389.5 293.26 390.67 292.09 422.52 260.23 422.59 260.3 433.81 271.52"/><path d="M255.39,450.12A76.75,76.75,0,0,1,152.49,541a8,8,0,0,1-2.66-13.07l41-41L164,460.09l-41,41a8,8,0,0,1-13.08-2.67,76.78,76.78,0,0,1,90.94-102.87L244,352.46l23.83-23.83,11.31,11.31L208.8,410.28a8,8,0,0,1-8.21,1.92,60.79,60.79,0,0,0-79.32,68l37.11-37.11a8,8,0,0,1,11.32,0l38.13,38.13a8,8,0,0,1,0,11.31l-37.12,37.11a60.8,60.8,0,0,0,68.06-79.29,8,8,0,0,1,1.93-8.2L260,422.87l18-18,11.31,11.31Z"/><path d="M524.39,235.14a76.31,76.31,0,0,1-74,20l-40.1,40.1-.09-.09L399,283.87l23.58-23.57,19.9-19.91a8,8,0,0,1,8.21-1.93A60.82,60.82,0,0,0,530,170.4l-37.8,37.8a8,8,0,0,1-11.31,0l-38.13-38.13a8,8,0,0,1,0-11.32L480.55,121a60.79,60.79,0,0,0-68,79.32,8,8,0,0,1-1.93,8.21l-70.72,70.72L328.55,267.9l21.53-21.53,45.81-45.82a76.79,76.79,0,0,1,102.88-90.93,8,8,0,0,1,2.66,13.08l-41.71,41.71,26.81,26.81,41.71-41.71a8,8,0,0,1,13.08,2.67A76.62,76.62,0,0,1,524.39,235.14Z"/><rect class="cls-2" x="441.94" y="391.18" width="16" height="122.03" transform="translate(-187.97 450.32) rotate(-44.97)"/><path d="M342.74,304.74l-5.65-5.65L199.64,161.64l-5-25a8,8,0,0,0-4.61-5.73L139.3,108.46a8,8,0,0,0-8.89,1.66l-22.54,22.54a8,8,0,0,0-1.66,8.89l22.41,50.68a8,8,0,0,0,5.73,4.61l25,5.06L277,319.48l11.28,11.28,8.58,8.58,5.66,5.66a8,8,0,0,0,11.31,0l28.94-28.94a8,8,0,0,0,0-11.32ZM308.15,328,169,188.88a8,8,0,0,0-4.07-2.19L141.57,182,123.06,140.1l14.78-14.79,41.89,18.52,4.71,23.35a8,8,0,0,0,2.18,4.07L325.77,310.4Z"/><path class="cls-2" d="M325.77,310.4,308.15,328,169,188.88a8,8,0,0,0-4.07-2.19L141.57,182,123.06,140.1l14.78-14.79,41.89,18.52,4.71,23.35a8,8,0,0,0,2.18,4.07Z"/><path d="M544.09,499.18c-1.2-13.17-7.4-26-17.45-36L420.28,356.82a26.66,26.66,0,0,1-7-12.11l-7.43-29.61a41,41,0,0,0-4.22-10.41c-.12-.2-.24-.41-.37-.61a43.36,43.36,0,0,0-6.64-8.5,44.39,44.39,0,0,0-3.93-3.49,40.43,40.43,0,0,0-21.3-8.71c-9.75-.89-18.73,2.16-25.2,8.62l-7.08,7.09L325.77,310.4,308.15,328l-11.32,11.31-7.08,7.09c-11.82,11.82-11.48,31.76.09,46.49a42.79,42.79,0,0,0,3.49,3.94,43.68,43.68,0,0,0,8.5,6.63,41,41,0,0,0,11,4.59l29.61,7.43a26.81,26.81,0,0,1,12.11,7L460.92,528.89c11.64,11.64,26.55,17.61,40.62,17.61,11.5,0,22.44-4,30.58-12.13C541.1,525.4,545.35,512.9,544.09,499.18Zm-23.28,23.88c-11.88,11.88-33.67,9.42-48.58-5.48L365.88,411.22A42.38,42.38,0,0,0,346.35,400l-29.61-7.43a26.68,26.68,0,0,1-12.1-7c-8.65-8.65-10.26-21.12-3.58-27.8l54.43-54.43a14.78,14.78,0,0,1,10.65-4.12,22,22,0,0,1,8.83,2,27.56,27.56,0,0,1,8.32,5.74,26.66,26.66,0,0,1,7,12.11l7.43,29.61A42.21,42.21,0,0,0,409,368.13L515.32,474.48C530.23,489.39,532.69,511.18,520.81,523.06Z"/><path class="cls-3" d="M513.07,223.82a60.39,60.39,0,0,1-62.37,14.64,8,8,0,0,0-8.21,1.93l-19.9,19.91-.07-.07-31.85,31.86a40.43,40.43,0,0,0-21.3-8.71c-9.75-.89-18.73,2.16-25.2,8.62l-7.08,7.09-8.58-8.58,11.32-11.33,0,0,70.72-70.72a8,8,0,0,0,1.93-8.21,60.79,60.79,0,0,1,68-79.32l-37.8,37.79a8,8,0,0,0,0,11.32l38.13,38.13a8,8,0,0,0,11.31,0L530,170.4A60.7,60.7,0,0,1,513.07,223.82Z"/><path class="cls-4" d="M515.32,474.48,409,368.13a42.21,42.21,0,0,1-11.23-19.52L390.31,319a26.66,26.66,0,0,0-7-12.11,27.56,27.56,0,0,0-8.32-5.74,22,22,0,0,0-8.83-2,14.78,14.78,0,0,0-10.65,4.12l-54.43,54.43c-6.68,6.68-5.07,19.15,3.58,27.8a26.68,26.68,0,0,0,12.1,7L346.35,400a42.38,42.38,0,0,1,19.53,11.23L472.23,517.58c14.91,14.9,36.7,17.36,48.58,5.48S530.23,489.39,515.32,474.48ZM487.42,501l-86.28-86.29,11.31-11.31,86.29,86.29Z"/><path class="cls-3" d="M289.84,392.92,260,422.81l.06.06L240.7,442.18a8,8,0,0,0-1.93,8.2,60.8,60.8,0,0,1-68.06,79.29l37.12-37.11a8,8,0,0,0,0-11.31L169.7,443.12a8,8,0,0,0-11.32,0l-37.11,37.11a60.79,60.79,0,0,1,79.32-68,8,8,0,0,0,8.21-1.92l70.33-70.34,0,0,9.15-9.15,8.58,8.58-7.08,7.09C277.93,358.25,278.27,378.19,289.84,392.92Z"/></g></g></svg>