<svg xmlns="http://www.w3.org/2000/svg" viewBox="0 0 650.63 650.63"><defs><style>.cls-1{fill:#f1f2f6;}.cls-2{fill:#02b143;}.cls-3{fill:#a4b0be;}.cls-4{fill:#333;}.cls-5{fill:#fff;}</style></defs><title>WatchFrndlyTV</title><g id="Layer_2" data-name="Layer 2"><g id="Layer_1-2" data-name="Layer 1"><circle class="cls-1" cx="325.32" cy="325.32" r="325.32"/><path class="cls-2" d="M503.67,166.24V316.11l-50.5-.21h0a8,8,0,0,0-8,8l.18,73.57.1,37.71q-.09.33-.15.66H123.47V166.24Z"/><path class="cls-2" d="M472.92,341.94v16.24h16.24V341.94Zm0,27.68v16.24h16.24V369.62Zm21.23,42.83a21.22,21.22,0,1,0,21.22,21.22A21.23,21.23,0,0,0,494.15,412.45Zm0,33a11.78,11.78,0,1,1,11.78-11.78A11.78,11.78,0,0,1,494.14,445.45Zm5-103.51v16.24h16.24V341.94Zm0,27.68v16.24h16.24V369.62Zm0,0v16.24h16.24V369.62Zm0-27.68v16.24h16.24V341.94Zm-5,70.51a21.22,21.22,0,1,0,21.22,21.22A21.23,21.23,0,0,0,494.15,412.45Zm0,33a11.78,11.78,0,1,1,11.78-11.78A11.78,11.78,0,0,1,494.14,445.45Zm-21.22-75.83v16.24h16.24V369.62Zm0-27.68v16.24h16.24V341.94Zm0,0v16.24h16.24V341.94Zm0,27.68v16.24h16.24V369.62Zm21.23,42.83a21.22,21.22,0,1,0,21.22,21.22A21.23,21.23,0,0,0,494.15,412.45Zm0,33a11.78,11.78,0,1,1,11.78-11.78A11.78,11.78,0,0,1,494.14,445.45Zm5-103.51v16.24h16.24V341.94Zm0,27.68v16.24h16.24V369.62Zm0,16.24h16.24V369.62H499.13Zm0-43.92v16.24h16.24V341.94Zm-5,70.51a21.22,21.22,0,1,0,21.22,21.22A21.23,21.23,0,0,0,494.15,412.45Zm0,33a11.78,11.78,0,1,1,11.78-11.78A11.78,11.78,0,0,1,494.14,445.45Zm-5-75.83H472.92v16.24h16.24Zm0-27.68H472.92v16.24h16.24Zm54,137.14,0-7.87L543,397.49l-.18-73.26a8,8,0,0,0-8-8l-15.14-.06V158.24a8,8,0,0,0-8-8H115.47a8,8,0,0,0-8,8V443.86a8,8,0,0,0,8,8H265.91L234.75,483a4.2,4.2,0,0,0-1.14,2.23,2.48,2.48,0,0,0,0,.27,2.42,2.42,0,0,0,0,.47v8.9a3.55,3.55,0,0,0,3.55,3.55H398.62a3.55,3.55,0,0,0,3.55-3.55v-9A4.08,4.08,0,0,0,401,483l-31.15-31.16h75.36l.1,40.2a8,8,0,0,0,8,8l11.32,0,19.75.08,20.21.09,19.61.08,10.75.05h0a8,8,0,0,0,8-8l0-13.29Zm-165.39,3.36H258l30.58-30.58h58.64Zm-254.3-46.58V166.24h380.2V316.11l-50.5-.21h0a8,8,0,0,0-8,8l.18,73.57.1,37.71q-.09.33-.15.66Zm403.43,48.5-11-.05-43.12-.18-11.56-.05v-5h.27l-.07-27.22v-6.64l0-9.36,0-6.64-.08-31.73-.16-65.56,42.52.18,16,.07,7.12,0,.16,65.28.08,32,.05,17.85,0,21.32-.27.37Zm-27.77-98.5h16.24V369.62H499.13Zm0-27.68h16.24V341.94H499.13Zm-5,54.27a21.22,21.22,0,1,0,21.22,21.22A21.23,21.23,0,0,0,494.15,412.45Zm0,33a11.78,11.78,0,1,1,11.78-11.78A11.78,11.78,0,0,1,494.14,445.45Zm-5-75.83H472.92v16.24h16.24Zm0-27.68H472.92v16.24h16.24Zm-16.24,0v16.24h16.24V341.94Zm0,27.68v16.24h16.24V369.62Zm21.23,42.83a21.22,21.22,0,1,0,21.22,21.22A21.23,21.23,0,0,0,494.15,412.45Zm0,33a11.78,11.78,0,1,1,11.78-11.78A11.78,11.78,0,0,1,494.14,445.45Zm5-103.51v16.24h16.24V341.94Zm0,27.68v16.24h16.24V369.62Zm0,0v16.24h16.24V369.62Zm0-27.68v16.24h16.24V341.94Zm-5,70.51a21.22,21.22,0,1,0,21.22,21.22A21.23,21.23,0,0,0,494.15,412.45Zm0,33a11.78,11.78,0,1,1,11.78-11.78A11.78,11.78,0,0,1,494.14,445.45Zm-21.22-75.83v16.24h16.24V369.62Zm0-27.68v16.24h16.24V341.94Z"/><path class="cls-3" d="M527.13,468.67l0-21.32L527,429.5l-.08-32-.16-65.28-7.12,0-16-.07-42.52-.18.16,65.56.08,31.73,0,6.64,0,9.36v6.64l.07,27.22h-.27v5l11.56.05,43.12.18,11,.05,0-15.32ZM472.92,341.94h16.24v16.24H472.92Zm0,27.68h16.24v16.24H472.92Zm21.23,85.27a21.22,21.22,0,1,1,21.22-21.22A21.23,21.23,0,0,1,494.15,454.89Zm21.22-69H499.13V369.62h16.24Zm0-27.68H499.13V341.94h16.24Z"/><path class="cls-4" d="M494.15,412.45a21.22,21.22,0,1,0,21.22,21.22A21.23,21.23,0,0,0,494.15,412.45Zm0,33a11.78,11.78,0,1,1,11.78-11.78A11.78,11.78,0,0,1,494.14,445.45Z"/><path class="cls-3" d="M505.92,433.67a11.78,11.78,0,1,1-11.78-11.78A11.78,11.78,0,0,1,505.92,433.67Z"/><path class="cls-4" d="M402.17,485.91v9a3.55,3.55,0,0,1-3.55,3.55H237.09a3.55,3.55,0,0,1-3.55-3.55V486a2.42,2.42,0,0,1,0-.47,2.48,2.48,0,0,1,0-.27,3.57,3.57,0,0,1,3.48-2.81H398.62A3.55,3.55,0,0,1,402.17,485.91Z"/><path class="cls-4" d="M288.54,451.86,258,482.44l-11.89,11.89a4.08,4.08,0,0,1-5.78,0l-5.54-5.53a4.07,4.07,0,0,1-1.17-3.28,2.48,2.48,0,0,1,0-.27,4.2,4.2,0,0,1,1.14-2.23l31.16-31.16Z"/><path class="cls-4" d="M402.17,485.91V486a4.09,4.09,0,0,1-1.2,2.81l-5.54,5.53a4.07,4.07,0,0,1-5.77,0l-11.89-11.89-30.59-30.58h22.64L401,483A4.08,4.08,0,0,1,402.17,485.91Z"/><path class="cls-4" d="M511.67,150.24H115.47a8,8,0,0,0-8,8V443.86a8,8,0,0,0,8,8h346v-6.64l0-9.36H123.47V166.24h380.2V332.11l16,.07V158.24A8,8,0,0,0,511.67,150.24Z"/><path class="cls-4" d="M543.16,479.08h-16l0-10.41,0-21.32L527,429.5l-.08-32-.16-65.28-7.12,0-16-.07-42.52-.18.16,65.56.08,31.73,0,6.64,0,9.36v6.64l.07,27.22h-16l-.07-27.22v-4.51l0-11.49v-.66l-.1-37.71-.18-73.57a8,8,0,0,1,8-8h0l50.5.21,16,.07,15.14.06a8,8,0,0,1,8,8l.18,73.26.19,73.72Z"/><path class="cls-4" d="M542.89,479.08l0,13.29a8,8,0,0,1-8,8h0l-10.75-.05-19.61-.08-20.21-.09-19.75-.08-11.32,0a8,8,0,0,1-8-8l-.1-40.2,0-14.66a8.55,8.55,0,0,1,.11-1.34q.06-.33.15-.66l-.1-37.71h16l.08,31.73,0,6.64,0,9.36h-.26l0,6.64.06,27.22v5l11.56.05,43.12.18,11,.05,0-15.32.27-.37,0-21.32L527,429.5l-.08-32h16l.19,73.72a7.7,7.7,0,0,1-.27,2Z"/><rect class="cls-4" x="472.92" y="341.94" width="16.24" height="16.24"/><rect class="cls-4" x="499.13" y="341.94" width="16.24" height="16.24"/><rect class="cls-4" x="472.92" y="369.62" width="16.24" height="16.24"/><rect class="cls-4" x="499.13" y="369.62" width="16.24" height="16.24"/><path class="cls-5" d="M373.84,240.32l0,0a21.48,21.48,0,0,0-5.08-4.1h0a31.57,31.57,0,0,0-4.07-2.06A46.45,46.45,0,0,0,352.77,231a82,82,0,0,0-8.3-1.05,78.52,78.52,0,0,0-9-.13h0c-12.1-.45-25.72,1.27-37.58,8.21-16,9.39-15.47,24.86-13.26,33.81.08.3.15.59.23.87a.58.58,0,0,1,0,.14h-.54l-11.58.22h0c-2.57.54-4.65,1.27-5.74,3.2a5.9,5.9,0,0,0-.28,5.17c.15.33.42.81,2.72,2.78,2.57,2.19,3.24,2.44,4.4,3.61a17,17,0,0,1,2.89,4.18,11.17,11.17,0,0,1,1,3.91L261.19,354h0a20.22,20.22,0,0,1-2.29,3.54,13.76,13.76,0,0,1-4.22,4,22.37,22.37,0,0,0-3.14,1.89,6.52,6.52,0,0,0-2,1.92,4.59,4.59,0,0,0-.52,3.29,4.45,4.45,0,0,0,1.08,2,5.11,5.11,0,0,0,2.22,1.3,7.71,7.71,0,0,0,2.54.44H256c23.12,0,40.73,0,47.58,0h2.51a13.15,13.15,0,0,0,4.26-.7,7.31,7.31,0,0,0,4.26-2.81c.17-.27,1.29-2.05.65-3.67-.08-.19-.2-.41-1.73-1.79-1.89-1.7-2.58-2.14-3.31-3.29h0a7.83,7.83,0,0,1-.64-1.75,22.73,22.73,0,0,1-.07-5.37l19.3-63.08.09-.31h9.24c1.64,0,6.82-.27,10.18-4.12a9.13,9.13,0,0,0,2.38-4.86,7,7,0,0,0-1.35-5.67,6.73,6.73,0,0,0-5.06-2.12H328.73a6.08,6.08,0,0,1-2.26-.89c-3.28-2.12-4-7.2-3.51-11.91a27.1,27.1,0,0,1,1.07-5.24c.81-2.57,2.36-7.49,7.33-10.24a14.77,14.77,0,0,1,8.32-1.71,14.19,14.19,0,0,0-2.68,7.88c0,6.13,4.46,11.46,11,14.18a26.79,26.79,0,0,0,14.85,1.47,23.48,23.48,0,0,0,9.06-3.64,15.08,15.08,0,0,0,6.28-12A14.33,14.33,0,0,0,376,243"/><path class="cls-5" d="M354.48,329.94a1.61,1.61,0,0,1-.46,1.12,1.56,1.56,0,0,1-1.12.46h-5.72L345.92,348a1.59,1.59,0,0,1-1.7,1.46l-.32,0a1.58,1.58,0,0,1-1.46-1.7l1.25-16.25h-5.62a1.58,1.58,0,0,1-1.12-2.7,1.55,1.55,0,0,1,1.12-.46H352.9A1.58,1.58,0,0,1,354.48,329.94Z"/><path class="cls-5" d="M375.3,330a1.58,1.58,0,0,1-.19.75l-9.66,17.91a1.55,1.55,0,0,1-.85.73h0l-.1,0a1.6,1.6,0,0,1-.53.09,1.58,1.58,0,0,1-1.49-1.05l-6.61-18.33a1.58,1.58,0,1,1,3-1.07l5.44,15.09,8.05-14.92a1.59,1.59,0,0,1,3,.75Z"/></g></g></svg>